<svg xmlns="http://www.w3.org/2000/svg" xmlns:svg="http://www.w3.org/2000/svg" id="svg5" width="1040.59" height="311.458" version="1.1" viewBox="0 0 275.323 82.407"><defs id="defs2"><linearGradient id="linearGradient2864"><stop id="stop2862" offset="0" style="stop-color:#ac4850;stop-opacity:1"/></linearGradient></defs><g id="layer1" transform="translate(-123.12074,87.951164)"><rect id="rect36134" width="38.444" height="76.888" x="123.621" y="-82.933" ry="3.834" style="fill:#e1e1e1;fill-opacity:1;stroke:#000;stroke-width:1;stroke-dashoffset:37.7953;stroke-opacity:1"/><rect id="rect5503" width="168.499" height="76.888" x="164.278" y="-82.933" ry="3.834" style="fill:#e1e1e1;fill-opacity:1;stroke:#000;stroke-width:1;stroke-dashoffset:37.7953;stroke-opacity:1"/><rect id="rect2917" width="31.082" height="42.534" x="180.203" y="-65.755" ry="3.834" style="fill:#fff;fill-opacity:1;stroke:#000;stroke-width:1;stroke-dashoffset:37.7953;stroke-opacity:1"/><text id="text6603" x="195.744" y="-57.167" xml:space="preserve" style="font-style:normal;font-weight:400;font-size:10.5833px;line-height:1.25;font-family:sans-serif;text-align:center;text-anchor:middle;fill:#000;fill-opacity:1;stroke:none;stroke-width:.264583"><tspan style="text-align:center;text-anchor:middle;stroke-width:.264583" id="tspan6601" x="195.744" y="-57.167">x</tspan></text><path id="path6718" d="M 208.57546,-55.070837 H 182.91203" style="fill:none;stroke:#000;stroke-width:.264583px;stroke-linecap:butt;stroke-linejoin:miter;stroke-opacity:1"/><text id="text6722" x="181.698" y="-47.76" xml:space="preserve" style="font-style:normal;font-weight:400;font-size:4.93889px;line-height:1.25;font-family:sans-serif;fill:#000;fill-opacity:1;stroke:none;stroke-width:.264583"><tspan style="font-size:4.93889px;stroke-width:.264583" id="tspan6720" x="181.698" y="-47.76">Education:</tspan><tspan id="tspan9241" x="181.698" y="-41.587" style="font-size:4.93889px;stroke-width:.264583"> a</tspan><tspan id="tspan6724" x="181.698" y="-35.413" style="font-size:4.93889px;stroke-width:.264583"> b</tspan><tspan id="tspan9233" x="181.698" y="-29.239" style="font-size:4.93889px;stroke-width:.264583"> c</tspan></text><rect id="rect7456" width="31.082" height="42.534" x="218.187" y="-65.755" ry="3.834" style="fill:#e6f4f8;fill-opacity:1;stroke:#000;stroke-width:1;stroke-dashoffset:37.7953;stroke-opacity:1"/><text id="text7460" x="233.738" y="-57.167" xml:space="preserve" style="font-style:italic;font-variant:normal;font-weight:400;font-stretch:normal;font-size:10.5833px;line-height:1.25;font-family:sans-serif;-inkscape-font-specification:'sans-serif Italic';text-align:center;text-anchor:middle;fill:#000;fill-opacity:1;stroke:none;stroke-width:.264583"><tspan style="font-style:italic;font-variant:normal;font-weight:400;font-stretch:normal;font-family:sans-serif;-inkscape-font-specification:'sans-serif Italic';text-align:center;text-anchor:middle;stroke-width:.264583" id="tspan7458" x="233.738" y="-57.167">x</tspan></text><path id="path7462" d="M 246.55959,-55.070837 H 220.89616" style="fill:none;stroke:#000;stroke-width:.264583px;stroke-linecap:butt;stroke-linejoin:miter;stroke-opacity:1"/><text id="text7470" x="219.682" y="-47.76" xml:space="preserve" style="font-style:normal;font-weight:400;font-size:4.93889px;line-height:1.25;font-family:sans-serif;fill:#000;fill-opacity:1;stroke:none;stroke-width:.264583"><tspan style="font-style:italic;font-variant:normal;font-weight:700;font-stretch:normal;font-size:4.93889px;font-family:sans-serif;-inkscape-font-specification:'sans-serif Bold Italic';fill:#000;fill-opacity:1;stroke:none;stroke-width:.264583;stroke-opacity:1" id="tspan7464" x="219.682" y="-47.76">Education:</tspan><tspan id="tspan10719" x="219.682" y="-41.587" style="font-style:italic;font-variant:normal;font-weight:700;font-stretch:normal;font-size:4.93889px;font-family:sans-serif;-inkscape-font-specification:'sans-serif Bold Italic';fill:#60aad6;fill-opacity:1;stroke:none;stroke-width:.264583;stroke-opacity:1"> a</tspan><tspan id="tspan7466" x="219.682" y="-35.413" style="font-style:italic;font-variant:normal;font-weight:700;font-stretch:normal;font-size:4.93889px;font-family:sans-serif;-inkscape-font-specification:'sans-serif Bold Italic';fill:#bacd60;fill-opacity:1;stroke-width:.264583"> b</tspan><tspan id="tspan9235" x="219.682" y="-29.239" style="font-style:italic;font-variant:normal;font-weight:700;font-stretch:normal;font-size:4.93889px;font-family:sans-serif;-inkscape-font-specification:'sans-serif Bold Italic';fill:#f1a99a;fill-opacity:1;stroke-width:.264583"> c</tspan></text><path id="path7472" d="m 196.57053,-67.56654 c 3.38875,-4.129272 6.47761,-7.101787 17.96604,-7.04905 10.89655,0.05002 12.8516,0.855262 15.59453,7.028121" style="fill:none;stroke:#000;stroke-width:1;stroke-linecap:round;stroke-linejoin:miter;stroke-dasharray:none;stroke-opacity:1"/><rect id="rect10721" width="31.082" height="42.534" x="256.171" y="-65.755" ry="3.834" style="fill:#e6f4f8;fill-opacity:1;stroke:#000;stroke-width:1;stroke-dashoffset:37.7953;stroke-opacity:1"/><text id="text10725" x="271.712" y="-57.167" xml:space="preserve" style="font-style:italic;font-variant:normal;font-weight:400;font-stretch:normal;font-size:10.5833px;line-height:1.25;font-family:sans-serif;-inkscape-font-specification:'sans-serif Italic';text-align:center;text-anchor:middle;fill:#000;fill-opacity:1;stroke:none;stroke-width:.264583"><tspan style="font-style:italic;font-variant:normal;font-weight:400;font-stretch:normal;font-family:sans-serif;-inkscape-font-specification:'sans-serif Italic';text-align:center;text-anchor:middle;stroke-width:.264583" id="tspan10723" x="271.712" y="-57.167">x</tspan></text><path id="path10727" d="M 284.5437,-55.070837 H 258.88027" style="fill:none;stroke:#000;stroke-width:.264583px;stroke-linecap:butt;stroke-linejoin:miter;stroke-opacity:1"/><text id="text10737" x="257.666" y="-47.76" xml:space="preserve" style="font-style:normal;font-weight:400;font-size:4.93889px;line-height:1.25;font-family:sans-serif;fill:#000;fill-opacity:1;stroke:none;stroke-width:.264583"><tspan style="font-style:italic;font-variant:normal;font-weight:700;font-stretch:normal;font-size:4.93889px;font-family:sans-serif;-inkscape-font-specification:'sans-serif Bold Italic';fill:#000;fill-opacity:1;stroke:none;stroke-width:.264583;stroke-opacity:1" id="tspan10729" x="257.666" y="-47.76">Educación:</tspan><tspan id="tspan10731" x="257.666" y="-41.587" style="font-style:italic;font-variant:normal;font-weight:700;font-stretch:normal;font-size:4.93889px;font-family:sans-serif;-inkscape-font-specification:'sans-serif Bold Italic';fill:#60aad6;fill-opacity:1;stroke:none;stroke-width:.264583;stroke-opacity:1"> a</tspan><tspan id="tspan10733" x="257.666" y="-35.413" style="font-style:italic;font-variant:normal;font-weight:700;font-stretch:normal;font-size:4.93889px;font-family:sans-serif;-inkscape-font-specification:'sans-serif Bold Italic';fill:#bacd60;fill-opacity:1;stroke-width:.264583"> b</tspan><tspan id="tspan10735" x="257.666" y="-29.239" style="font-style:italic;font-variant:normal;font-weight:700;font-stretch:normal;font-size:4.93889px;font-family:sans-serif;-inkscape-font-specification:'sans-serif Bold Italic';fill:#f1a99a;fill-opacity:1;stroke-width:.264583"> c</tspan></text><rect id="rect11485" width="31.082" height="42.534" x="294.155" y="-65.755" ry="3.834" style="fill:#e6f4f8;fill-opacity:1;stroke:#000;stroke-width:1;stroke-dashoffset:37.7953;stroke-opacity:1"/><text id="text11489" x="309.749" y="-57.167" xml:space="preserve" style="font-style:italic;font-variant:normal;font-weight:400;font-stretch:normal;font-size:10.5833px;line-height:1.25;font-family:sans-serif;-inkscape-font-specification:'sans-serif Italic';text-align:center;text-anchor:middle;fill:#000;fill-opacity:1;stroke:none;stroke-width:.264583"><tspan style="font-style:italic;font-variant:normal;font-weight:400;font-stretch:normal;font-family:sans-serif;-inkscape-font-specification:'sans-serif Italic';text-align:center;text-anchor:middle;stroke-width:.264583" id="tspan11487" x="309.749" y="-57.167">x</tspan></text><path id="path11491" d="M 322.52784,-55.070837 H 296.86441" style="fill:none;stroke:#000;stroke-width:.265;stroke-linecap:butt;stroke-linejoin:miter;stroke-dasharray:1.59,1.59;stroke-dashoffset:0;stroke-opacity:1"/><text id="text11501" x="295.65" y="-47.76" xml:space="preserve" style="font-style:normal;font-weight:400;font-size:4.93889px;line-height:1.25;font-family:sans-serif;fill:#000;fill-opacity:1;stroke:none;stroke-width:.264583"><tspan style="font-style:italic;font-variant:normal;font-weight:700;font-stretch:normal;font-size:4.93889px;font-family:sans-serif;-inkscape-font-specification:'sans-serif Bold Italic';fill:#000;fill-opacity:1;stroke:none;stroke-width:.264583;stroke-opacity:1" id="tspan11493" x="295.65" y="-47.76">Educación:</tspan><tspan id="tspan11495" x="295.65" y="-41.587" style="font-style:italic;font-variant:normal;font-weight:700;font-stretch:normal;font-size:4.93889px;font-family:sans-serif;-inkscape-font-specification:'sans-serif Bold Italic';fill:#60aad6;fill-opacity:1;stroke:none;stroke-width:.264583;stroke-opacity:1"> a</tspan><tspan id="tspan11497" x="295.65" y="-35.413" style="font-style:italic;font-variant:normal;font-weight:700;font-stretch:normal;font-size:4.93889px;font-family:sans-serif;-inkscape-font-specification:'sans-serif Bold Italic';fill:#bacd60;fill-opacity:1;stroke-width:.264583"> b</tspan><tspan id="tspan11499" x="295.65" y="-29.239" style="font-style:italic;font-variant:normal;font-weight:700;font-stretch:normal;font-size:4.93889px;font-family:sans-serif;-inkscape-font-specification:'sans-serif Bold Italic';fill:#f1a99a;fill-opacity:1;stroke-width:.264583"> c</tspan></text><text id="text13525" x="214.147" y="-76.038" xml:space="preserve" style="font-style:normal;font-weight:400;font-size:4.93889px;line-height:1.25;font-family:sans-serif;text-align:center;text-anchor:middle;fill:#000;fill-opacity:1;stroke:none;stroke-width:.264583"><tspan style="font-size:4.93889px;text-align:center;text-anchor:middle;stroke-width:.264583" id="tspan13523" x="214.147" y="-76.038">theme</tspan></text><path id="path13545" d="m 272.15143,-67.56654 c 3.38875,-4.129272 6.47761,-7.101787 17.96604,-7.04905 10.89655,0.05002 12.8516,0.855262 15.59453,7.028121" style="fill:none;stroke:#000;stroke-width:1;stroke-linecap:round;stroke-linejoin:miter;stroke-dasharray:none;stroke-opacity:1"/><path id="path13553" d="m 234.16731,-21.056099 c 3.38875,4.129272 6.4776,7.101787 17.96604,7.04905 10.89655,-0.05002 12.8516,-0.855262 15.59453,-7.028121" style="fill:none;stroke:#000;stroke-width:1;stroke-linecap:round;stroke-linejoin:miter;stroke-dasharray:none;stroke-opacity:1"/><text id="text13559" x="251.299" y="-8.691" xml:space="preserve" style="font-style:normal;font-weight:400;font-size:4.93889px;line-height:1.25;font-family:sans-serif;text-align:center;text-anchor:middle;fill:#000;fill-opacity:1;stroke:none;stroke-width:.264583"><tspan style="font-size:4.93889px;text-align:center;text-anchor:middle;stroke-width:.264583" id="tspan13557" x="251.299" y="-8.691">language</tspan></text><text id="text13563" x="289.767" y="-76.038" xml:space="preserve" style="font-style:normal;font-weight:400;font-size:4.93889px;line-height:1.25;font-family:sans-serif;text-align:center;text-anchor:middle;fill:#000;fill-opacity:1;stroke:none;stroke-width:.264583"><tspan style="font-size:4.93889px;text-align:center;text-anchor:middle;stroke-width:.264583" id="tspan13561" x="289.767" y="-76.038">ASCII?</tspan></text><g id="g14095" transform="translate(13.811554)"><rect id="rect6728" width="31.082" height="42.534" x="113.49" y="-65.755" ry="3.834" style="fill:#fff;fill-opacity:1;stroke:#000;stroke-width:1;stroke-dashoffset:37.7953;stroke-opacity:1"/><text id="text13426" x="114.636" y="-55.508" xml:space="preserve" style="font-style:normal;font-weight:400;font-size:3.88056px;line-height:1.25;font-family:sans-serif;fill:#606060;fill-opacity:1;stroke:none;stroke-width:.264583"><tspan style="font-size:3.88056px;fill:#606060;fill-opacity:1;stroke-width:.264583" id="tspan13424" x="114.636" y="-55.508">{</tspan><tspan id="tspan13430" x="114.636" y="-50.657" style="font-size:3.88056px;fill:#606060;fill-opacity:1;stroke-width:.264583"> &quot;a&quot;: ...,</tspan><tspan id="tspan13428" x="114.636" y="-45.807" style="font-size:3.88056px;fill:#606060;fill-opacity:1;stroke-width:.264583"> &quot;b&quot;: ...,</tspan><tspan id="tspan13515" x="114.636" y="-40.956" style="font-size:3.88056px;fill:#606060;fill-opacity:1;stroke-width:.264583"> &quot;template&quot;: ...,</tspan><tspan id="tspan13517" x="114.636" y="-36.105" style="font-size:3.88056px;fill:#606060;fill-opacity:1;stroke-width:.264583"> &quot;theme&quot;: ...,</tspan><tspan id="tspan13509" x="114.636" y="-31.254" style="font-size:3.88056px;fill:#606060;fill-opacity:1;stroke-width:.264583"> ...,</tspan><tspan id="tspan13436" x="114.636" y="-26.404" style="font-size:3.88056px;fill:#606060;fill-opacity:1;stroke-width:.264583">}</tspan></text><text id="text13629" x="129.022" y="-60.384" xml:space="preserve" style="font-style:italic;font-variant:normal;font-weight:700;font-stretch:normal;font-size:4.58611px;line-height:1.25;font-family:sans-serif;-inkscape-font-specification:'sans-serif Bold Italic';text-align:center;text-anchor:middle;fill:#000;fill-opacity:1;stroke:none;stroke-width:.264583"><tspan style="font-style:italic;font-variant:normal;font-weight:700;font-stretch:normal;font-size:4.58611px;font-family:sans-serif;-inkscape-font-specification:'sans-serif Bold Italic';text-align:center;text-anchor:middle;stroke-width:.264583" id="tspan13627" x="129.022" y="-60.384">resume.json</tspan></text></g><path id="path11153" d="m 156.08595,-44.47806 17.50922,-0.0209" style="fill:none;stroke:#fff;stroke-width:3;stroke-linecap:round;stroke-linejoin:miter;stroke-dasharray:none;stroke-opacity:1"/><path id="path11098" d="m 156.59284,-44.478061 17.50814,-0.0209" style="fill:none;stroke:#000;stroke-width:2;stroke-linecap:round;stroke-linejoin:miter;stroke-dasharray:none;stroke-opacity:1"/><rect id="rect16714" width="36.776" height="9.037" x="234.332" y="-87.451" ry="3.834" style="fill:#fff;fill-opacity:1;stroke:#000;stroke-width:1;stroke-linecap:round;stroke-linejoin:round;stroke-dasharray:none;stroke-opacity:1"/><text id="text14372" x="252.558" y="-81.042" xml:space="preserve" style="font-style:normal;font-weight:400;font-size:7.05556px;line-height:1.25;font-family:sans-serif;text-align:center;text-anchor:middle;fill:#000;fill-opacity:1;stroke:none;stroke-width:.264583"><tspan style="font-size:7.05556px;text-align:center;text-anchor:middle;stroke-width:.264583" id="tspan14370" x="252.558" y="-81.042">ancv</tspan></text><path id="path23267" d="m 213.74213,-13.274713 c 7.3465,-0.980464 8.4697,-6.652791 9.10246,-13.844785" style="fill:none;stroke:#000;stroke-width:.5;stroke-linecap:round;stroke-linejoin:miter;stroke-dasharray:1,1;stroke-dashoffset:0;stroke-opacity:1"/><text id="text25487" x="211.711" y="-12.171" xml:space="preserve" style="font-style:normal;font-weight:400;font-size:3.52778px;line-height:1.25;font-family:sans-serif;text-align:end;text-anchor:end;fill:#000;fill-opacity:1;stroke:none;stroke-width:.264583"><tspan style="font-size:3.52778px;text-align:end;text-anchor:end;stroke-width:.264583" id="tspan25485" x="211.711" y="-12.171">ANSI escapes</tspan></text><rect id="rect36136" width="26.202" height="9.037" x="129.742" y="-87.451" ry="3.834" style="fill:#fff;fill-opacity:1;stroke:#000;stroke-width:1;stroke-linecap:round;stroke-linejoin:round;stroke-dasharray:none;stroke-opacity:1"/><text id="text36140" x="142.808" y="-81.179" xml:space="preserve" style="font-style:normal;font-weight:400;font-size:7.05556px;line-height:1.25;font-family:sans-serif;text-align:center;text-anchor:middle;fill:#000;fill-opacity:1;stroke:none;stroke-width:.264583"><tspan style="font-size:7.05556px;text-align:center;text-anchor:middle;stroke-width:.264583" id="tspan36138" x="142.808" y="-81.179">gists</tspan></text><rect id="rect40409" width="61.858" height="76.888" x="336.085" y="-82.933" ry="3.834" style="fill:#e1e1e1;fill-opacity:1;stroke:#000;stroke-width:1;stroke-dashoffset:37.7953;stroke-opacity:1"/><rect id="rect40435" width="38.318" height="9.037" x="347.855" y="-87.451" ry="3.834" style="fill:#fff;fill-opacity:1;stroke:#000;stroke-width:1;stroke-linecap:round;stroke-linejoin:round;stroke-dasharray:none;stroke-opacity:1"/><text id="text40439" x="367.258" y="-80.287" xml:space="preserve" style="font-style:normal;font-weight:400;font-size:7.05556px;line-height:1.25;font-family:sans-serif;text-align:center;text-anchor:middle;fill:#000;fill-opacity:1;stroke:none;stroke-width:.264583"><tspan style="font-size:7.05556px;text-align:center;text-anchor:middle;stroke-width:.264583" id="tspan40437" x="367.258" y="-80.287">terminal</tspan></text><path id="path40443" d="M 324.17686,-44.47806 344.37,-44.49896" style="fill:none;stroke:#fff;stroke-width:3;stroke-linecap:round;stroke-linejoin:miter;stroke-dasharray:none;stroke-opacity:1"/><path id="path40445" d="m 324.37648,-44.478061 20.72885,-0.0209" style="fill:none;stroke:#000;stroke-width:2;stroke-linecap:round;stroke-linejoin:miter;stroke-dasharray:none;stroke-opacity:1"/><path id="path40551" d="m 343.45918,-65.443505 19.44406,-0.141374" style="fill:none;stroke:#fff;stroke-width:8.22229;stroke-linecap:round;stroke-linejoin:miter;stroke-dasharray:none;stroke-opacity:1"/><text id="text40649" x="339.394" y="-71.387" xml:space="preserve" style="font-style:normal;font-weight:400;font-size:4.93889px;line-height:1.25;font-family:sans-serif;text-align:start;text-anchor:start;fill:#000;fill-opacity:1;stroke:none;stroke-width:.264583"><tspan style="font-size:4.93889px;text-align:start;text-anchor:start;stroke-width:.264583" id="tspan40647" x="339.394" y="-71.387">$ curl -L ancv.io/heyho</tspan></text><path id="path41389" d="m 350.61631,-55.565273 19.44406,-0.141374" style="fill:none;stroke:#e6f4f8;stroke-width:8.22229;stroke-linecap:round;stroke-linejoin:miter;stroke-dasharray:none;stroke-opacity:1"/><path id="path41391" d="m 359.71881,-45.687041 31.30445,-0.141374" style="fill:none;stroke:#c9da95;stroke-width:8.22229;stroke-linecap:round;stroke-linejoin:miter;stroke-dasharray:none;stroke-opacity:1"/><path id="path41393" d="m 350.61631,-35.808809 18.42161,-0.141374" style="fill:none;stroke:#e6f4f8;stroke-width:8.22229;stroke-linecap:round;stroke-linejoin:miter;stroke-dasharray:none;stroke-opacity:1"/><path id="path41395" d="m 343.45918,-25.930577 19.44406,-0.141374" style="fill:none;stroke:#fff;stroke-width:8.22229;stroke-linecap:round;stroke-linejoin:miter;stroke-dasharray:none;stroke-opacity:1"/><path id="path41397" d="m 350.61631,-16.052345 27.41915,-0.141374" style="fill:none;stroke:#f1a99a;stroke-width:8.22229;stroke-linecap:round;stroke-linejoin:miter;stroke-dasharray:none;stroke-opacity:1"/><g id="path46644"><path id="path3940" d="m 183.61719,-72.888672 a 0.25,0.25 0 0 0 -0.27735,0.220703 0.25,0.25 0 0 0 0.22071,0.277344 l 0.25976,0.0293 0.25196,0.03125 0.24218,0.0332 0.22852,0.03516 a 0.25,0.25 0 0 0 0.28515,-0.208984 0.25,0.25 0 0 0 -0.20898,-0.285156 l -0.23047,-0.03516 -0.25195,-0.03516 -0.25586,-0.0332 z m 2.00195,0.332031 a 0.25,0.25 0 0 0 -0.30078,0.183594 0.25,0.25 0 0 0 0.18359,0.302735 l 0.1211,0.0293 0.19336,0.05078 0.1875,0.05273 0.17968,0.05664 0.17578,0.05859 0.0762,0.02734 a 0.25,0.25 0 0 0 0.31836,-0.15039 0.25,0.25 0 0 0 -0.15039,-0.320313 l -0.082,-0.0293 -0.18359,-0.0625 -0.19141,-0.05859 -0.19726,-0.05664 -0.20313,-0.05273 z m 1.74414,0.691407 a 0.25,0.25 0 0 0 -0.14844,0.11914 0.25,0.25 0 0 0 0.0957,0.339844 l 0.0996,0.05469 0.12695,0.07617 0.12305,0.07813 0.11718,0.08203 0.11328,0.08203 0.10743,0.08594 0.0957,0.08008 a 0.25,0.25 0 0 0 0.35156,-0.03125 0.25,0.25 0 0 0 -0.0293,-0.351563 l -0.10157,-0.08594 -0.12109,-0.0957 -0.125,-0.0918 -0.13086,-0.08984 -0.13672,-0.08789 -0.14062,-0.08398 -0.10547,-0.05859 a 0.25,0.25 0 0 0 -0.19141,-0.02148 z m 1.60547,1.302734 a 0.25,0.25 0 0 0 -0.1875,0.03711 0.25,0.25 0 0 0 -0.0664,0.347657 l 0.0664,0.09766 0.0684,0.109375 0.0664,0.111328 0.0625,0.113281 0.0586,0.115235 0.0566,0.11914 0.0547,0.121094 0.0176,0.04492 a 0.25,0.25 0 0 0 0.32617,0.136719 0.25,0.25 0 0 0 0.13672,-0.326172 l -0.0215,-0.05078 -0.0586,-0.134766 -0.0625,-0.130859 -0.0664,-0.128907 -0.0703,-0.126953 -0.0723,-0.125 -0.0781,-0.121094 -0.0703,-0.105468 a 0.25,0.25 0 0 0 -0.16016,-0.103516 z m 0.67773,1.830078 a 0.25,0.25 0 0 0 -0.18359,0.302735 l 0.0273,0.107421 0.0645,0.294922 0.0586,0.304688 0.041,0.253906 a 0.25,0.25 0 0 0 0.28711,0.205078 0.25,0.25 0 0 0 0.20703,-0.287109 l -0.043,-0.259766 -0.0606,-0.318359 -0.0684,-0.308594 -0.0273,-0.113281 a 0.25,0.25 0 0 0 -0.30274,-0.181641 z m 0.35743,1.964844 a 0.25,0.25 0 0 0 -0.22071,0.277344 l 0.01,0.0918 0.0371,0.357421 0.0371,0.369141 a 0.25,0.25 0 0 0 0.27148,0.224609 0.25,0.25 0 0 0 0.22461,-0.273437 l -0.0352,-0.369141 -0.0371,-0.361328 -0.0117,-0.0957 a 0.25,0.25 0 0 0 -0.27539,-0.220703 z" style="color:#000;fill:#000;stroke-linecap:round;stroke-dasharray:1,1;-inkscape-stroke:none"/><g id="g3930"><g id="path3932"><path id="path3936" d="m 190.23219,-64.451911 c -0.68696,0.06463 -1.29695,-0.440453 -1.36158,-1.127419 -0.0646,-0.686967 0.44045,-1.296959 1.12742,-1.361589 0.68696,-0.06463 1.29836,0.455387 1.36158,1.127419 0.0646,0.686967 -0.44045,1.296959 -1.12742,1.361589 z" style="color:#000;fill:#000;fill-rule:evenodd;stroke-width:.25pt;-inkscape-stroke:none"/><path id="path3938" d="m 189.98242,-67.107422 c -0.77675,0.07308 -1.35038,0.766231 -1.27734,1.542969 0.0731,0.776746 0.76623,1.352373 1.54297,1.279297 0.77675,-0.07308 1.35038,-0.768184 1.27734,-1.544922 -0.0718,-0.763809 -0.76382,-1.350647 -1.54297,-1.277344 z m 0.0312,0.332031 c 0.59478,-0.05596 1.1251,0.396309 1.17969,0.976563 0.0562,0.597194 -0.37937,1.125457 -0.97656,1.181641 -0.59718,0.05618 -1.12351,-0.381331 -1.17969,-0.978516 -0.0562,-0.597195 0.37937,-1.123504 0.97656,-1.179688 z" style="color:#000;fill:#000;fill-rule:evenodd;-inkscape-stroke:none"/></g></g></g><text id="text46710" x="182.031" y="-71.694" xml:space="preserve" style="font-style:normal;font-weight:400;font-size:3.52778px;line-height:1.25;font-family:sans-serif;text-align:end;text-anchor:end;fill:#000;fill-opacity:1;stroke:none;stroke-width:.264583"><tspan style="font-size:3.52778px;text-align:end;text-anchor:end;stroke-width:.264583" id="tspan46708" x="182.031" y="-71.694">template</tspan></text><path id="path4042" d="m 168.30511,-37.935096 5.79587,-6.563865" style="fill:none;stroke:#000;stroke-width:2;stroke-linecap:round;stroke-linejoin:miter;stroke-dasharray:none;stroke-opacity:1"/><path id="path4044" d="m 168.30511,-51.062826 5.79587,6.563865" style="fill:none;stroke:#000;stroke-width:2;stroke-linecap:round;stroke-linejoin:miter;stroke-dasharray:none;stroke-opacity:1"/><path id="path4052" d="m 339.30946,-37.935096 5.79587,-6.563865" style="fill:none;stroke:#000;stroke-width:2;stroke-linecap:round;stroke-linejoin:miter;stroke-dasharray:none;stroke-opacity:1"/><path id="path4054" d="m 339.30946,-51.062826 5.79587,6.563865" style="fill:none;stroke:#000;stroke-width:2;stroke-linecap:round;stroke-linejoin:miter;stroke-dasharray:none;stroke-opacity:1"/><path id="path4189" d="m 232.27106,-71.578096 -2.13996,3.990627 -4.22487,-1.62947" style="fill:none;stroke:#000;stroke-width:1.03425;stroke-linecap:round;stroke-linejoin:round;stroke-dasharray:none;stroke-opacity:1"/><path id="path4311" d="m 307.85196,-71.578096 -2.13996,3.990627 -4.22487,-1.62947" style="fill:none;stroke:#000;stroke-width:1.03425;stroke-linecap:round;stroke-linejoin:round;stroke-dasharray:none;stroke-opacity:1"/><path id="path4313" d="m 269.86784,-17.04454 -2.13996,-3.99063 -4.22487,1.62947" style="fill:none;stroke:#000;stroke-width:1.03425;stroke-linecap:round;stroke-linejoin:round;stroke-dasharray:none;stroke-opacity:1"/><path id="path4315" d="m 224.49212,-25.482548 -1.64753,-1.63695 -1.82832,1.432215" style="fill:none;stroke:#000;stroke-width:.530462;stroke-linecap:round;stroke-linejoin:round;stroke-dasharray:none;stroke-opacity:1"/></g></svg>